<?xml version="1.0" encoding="UTF-8" standalone="no"?>
<!-- Created with Inkscape (http://www.inkscape.org/) -->

<svg
   width="48pt"
   height="48pt"
   viewBox="0 0 16.933334 16.933333"
   version="1.1"
   id="svg979"
   inkscape:version="1.1 (c68e22c387, 2021-05-23)"
   sodipodi:docname="27 - Think Green.svg"
   inkscape:export-filename="E:\TR Design Studio Creative\Project Design\TR Creative Design\Icon Design\Project Hiring\Icon Icons\006 - Ecology\Send\1 - Line\27 - Think Green.png"
   inkscape:export-xdpi="768"
   inkscape:export-ydpi="768"
   xmlns:inkscape="http://www.inkscape.org/namespaces/inkscape"
   xmlns:sodipodi="http://sodipodi.sourceforge.net/DTD/sodipodi-0.dtd"
   xmlns="http://www.w3.org/2000/svg"
   xmlns:svg="http://www.w3.org/2000/svg"
   xmlns:rdf="http://www.w3.org/1999/02/22-rdf-syntax-ns#"
   xmlns:cc="http://creativecommons.org/ns#"
   xmlns:dc="http://purl.org/dc/elements/1.1/">
  <defs
     id="defs973" />
  <sodipodi:namedview
     id="base"
     pagecolor="#ffffff"
     bordercolor="#666666"
     borderopacity="1.0"
     inkscape:pageopacity="0.0"
     inkscape:pageshadow="2"
     inkscape:zoom="6.0435533"
     inkscape:cx="22.503318"
     inkscape:cy="31.934855"
     inkscape:document-units="pt"
     inkscape:current-layer="layer1"
     showgrid="false"
     units="pt"
     inkscape:window-width="1366"
     inkscape:window-height="716"
     inkscape:window-x="-8"
     inkscape:window-y="-8"
     inkscape:window-maximized="1"
     inkscape:pagecheckerboard="0"
     inkscape:snap-bbox="true"
     inkscape:snap-nodes="false"
     inkscape:bbox-nodes="true"
     showguides="false">
    <inkscape:grid
       type="xygrid"
       id="grid1526" />
    <sodipodi:guide
       position="0.97013909,15.963209"
       orientation="56.666615,0"
       id="guide1528"
       inkscape:locked="false" />
    <sodipodi:guide
       position="0.97013909,0.97016731"
       orientation="0,56.666667"
       id="guide1530"
       inkscape:locked="false" />
    <sodipodi:guide
       position="15.963195,0.97016731"
       orientation="-56.666615,0"
       id="guide1532"
       inkscape:locked="false" />
    <sodipodi:guide
       position="15.963195,15.963209"
       orientation="0,-56.666667"
       id="guide1534"
       inkscape:locked="false" />
  </sodipodi:namedview>
  <metadata
     id="metadata976">
    <rdf:RDF>
      <cc:Work
         rdf:about="">
        <dc:format>image/svg+xml</dc:format>
        <dc:type
           rdf:resource="http://purl.org/dc/dcmitype/StillImage" />
      </cc:Work>
    </rdf:RDF>
  </metadata>
  <g
     inkscape:label="Layer 1"
     inkscape:groupmode="layer"
     id="layer1"
     transform="translate(0,-280.06668)">
    <path
       id="path38540"
       style="color:#000000;display:inline;fill:#000000;stroke-width:1;stroke-linecap:round;stroke-linejoin:round;-inkscape-stroke:none;paint-order:markers fill stroke"
       d="m 11.683851,281.03674 c -0.183137,0.002 -0.3742,0.0343 -0.558091,0.12664 -0.549886,0.2759 -0.781457,0.85296 -0.781457,1.44773 v 1.38027 c -0.130296,-0.18104 -0.290757,-0.34196 -0.4931824,-0.45882 -0.4830923,-0.27892 -1.0658195,-0.22561 -1.5393664,-0.147 -0.4735474,0.0786 -0.8533654,0.21191 -0.8533654,0.21191 a 0.32585157,0.32585157 0 0 0 -0.2119096,0.36782 c 0,0 0.074388,0.39441 0.2430915,0.84382 0.1687047,0.4494 0.4116407,0.98427 0.894729,1.26319 0.4830967,0.27892 1.0677231,0.22243 1.5412756,0.14382 0.1509327,-0.025 0.2919167,-0.0552 0.4142737,-0.0853 -0.0048,0.16613 -0.01424,0.32175 -0.03373,0.45818 -0.02546,0.17818 -0.06853,0.31603 -0.122183,0.41173 H 9.3655743 a 0.32581898,0.32581898 0 0 0 -0.3245462,0.32709 0.32581898,0.32581898 0 0 0 0.3245462,0.32454 h 0.054091 l 0.1240914,0.71147 c -0.6115989,-0.31018 -1.0477771,-0.8645 -1.159457,-1.51008 a 0.32581898,0.32581898 0 0 0 -0.3754554,-0.26473 0.32581898,0.32581898 0 0 0 -0.2666367,0.37546 c 0.2302955,1.33123 1.4683079,2.31637 2.9291874,2.31636 1.45883,10e-6 2.693228,-0.98607 2.927278,-2.31381 a 0.32581898,0.32581898 0 0 0 -0.264727,-0.37801 0.32581898,0.32581898 0 0 0 -0.377364,0.26473 c -0.113675,0.64488 -0.550941,1.19963 -1.162003,1.5101 l 0.125364,-0.71147 h 0.05282 a 0.32581898,0.32581898 0 0 0 0.327091,-0.32454 0.32581898,0.32581898 0 0 0 -0.327091,-0.32709 h -0.816457 c -0.05436,-0.0957 -0.09864,-0.23355 -0.124091,-0.41173 -0.01949,-0.13643 -0.02834,-0.29205 -0.03245,-0.45818 0.122516,0.0302 0.263699,0.0602 0.41491,0.0853 0.473552,0.0786 1.05627,0.1351 1.539367,-0.14382 0.483088,-0.27892 0.728569,-0.81379 0.897274,-1.26319 0.168705,-0.44941 0.242454,-0.84382 0.242454,-0.84382 a 0.32585157,0.32585157 0 0 0 -0.211272,-0.36782 c 0,0 -0.380455,-0.1333 -0.854002,-0.2119 -0.473548,-0.0786 -1.056275,-0.13193 -1.539367,0.14699 -0.202158,0.11674 -0.362489,0.27743 -0.493182,0.45818 v -0.95708 c 0.03575,0.007 0.07267,0.0134 0.110731,0.0197 0.302666,0.0502 0.681837,0.0978 1.029638,-0.10307 0.347793,-0.2008 0.497993,-0.55213 0.60582,-0.83936 0.107825,-0.28724 0.154,-0.53901 0.154,-0.53901 a 0.32585157,0.32585157 0 0 0 -0.21891,-0.37036 c 0,0 -0.237894,-0.0783 -0.536455,-0.12474 -0.139951,-0.0217 -0.295318,-0.0424 -0.45691,-0.0401 z m 0.03628,0.66245 c 0.102591,-10e-4 0.216148,0.005 0.321999,0.0217 v 6.6e-4 c 0.07121,0.0111 0.06895,0.0156 0.12791,0.0287 -0.01772,0.06 -0.01254,0.0624 -0.03882,0.13237 -0.08597,0.22898 -0.239122,0.45487 -0.322,0.50272 -0.08288,0.0479 -0.355609,0.0661 -0.59691,0.0261 -0.05868,-0.01 -0.0546,-0.0144 -0.105633,-0.0261 0.04756,-0.26352 0.08296,-0.52472 0.313091,-0.64019 0.05532,-0.0278 0.168463,-0.0438 0.300365,-0.0458 z m -2.8286425,2.28838 c 0.2592644,-0.004 0.4961904,0.0288 0.6325465,0.1075 0.218178,0.12596 0.4666083,0.53474 0.613456,0.92591 0.08831,0.23524 0.09422,0.30542 0.127273,0.44227 -0.135127,0.0398 -0.200115,0.0697 -0.447365,0.11071 -0.4121868,0.0685 -0.8878282,0.0585 -1.106002,-0.0675 -0.2181699,-0.12597 -0.4666119,-0.53475 -0.6134555,-0.92592 -0.087866,-0.23406 -0.094125,-0.30275 -0.127273,-0.43972 0.1350034,-0.0398 0.1991764,-0.0696 0.4473642,-0.11071 0.1545688,-0.0256 0.3178969,-0.0405 0.4734558,-0.0426 z m 3.4796435,0 c 0.178347,-0.002 0.371398,0.0127 0.551728,0.0426 0.246929,0.041 0.309653,0.0709 0.44482,0.11071 -0.03316,0.137 -0.03949,0.20586 -0.127274,0.43972 -0.146844,0.39117 -0.392741,0.79995 -0.61091,0.92592 -0.218175,0.12596 -0.696997,0.13586 -1.109184,0.0675 -0.246748,-0.041 -0.30963,-0.0709 -0.44482,-0.11071 0.03308,-0.13689 0.03904,-0.20724 0.127273,-0.44227 0.146848,-0.39117 0.392733,-0.79995 0.610911,-0.92591 0.122725,-0.0708 0.328152,-0.10418 0.557456,-0.1075 z m -5.9067391,0.45372 c -0.042198,-10e-4 -0.085432,0.005 -0.1272729,0.0217 -0.6774834,0.26155 -1.3306106,0.5673 -1.8250944,1.099 -0.4944839,0.53172 -0.7986369,1.28632 -0.7986379,2.32338 -0.00579,0.32566 0.075099,0.65858 0.1132729,0.98636 -0.00195,0.14462 -0.045051,0.28617 -0.1253639,0.40664 l -0.7598196,1.14227 c -0.2887936,0.43319 0.039377,1.04874 0.560001,1.04874 h 0.3270916 v 1.62845 c 0,0.71593 0.5854439,1.30328 1.3013662,1.30328 0.012068,-1.5e-4 0.024302,-9.8e-4 0.036273,-0.002 l 1.5947302,-0.17627 v 1.15564 c 0,0.35602 0.2956047,0.65164 0.6516375,0.65164 H 11.32113 c 0.356047,0 0.651733,-0.29558 0.651637,-0.65164 v -3.25691 c -9.7e-5,-0.36655 0.243309,-1.06075 0.449909,-1.45028 0.176835,-0.3334 0.311381,-0.69138 0.401548,-1.06782 0.0415,-0.17461 -0.06608,-0.34987 -0.240547,-0.392 -0.174623,-0.0415 -0.349877,0.066 -0.392001,0.24055 -0.07721,0.32233 -0.195341,0.62822 -0.346818,0.91381 -0.245984,0.46379 -0.523889,1.15465 -0.523728,1.75574 v 3.25691 H 7.4125705 v -1.22754 l 0.6879104,-0.0763 c 0.1786079,-0.0207 0.3068486,-0.18219 0.2863641,-0.36082 -0.0195,-0.17854 -0.1803267,-0.30729 -0.3589097,-0.28827 l -2.9005509,0.322 c -0.3618422,-0.002 -0.649092,-0.2867 -0.649092,-0.6491 v -1.62846 c 0.1809504,6.6e-4 0.3278087,-0.14614 0.3270915,-0.32709 -6.191e-4,-0.18001 -0.1470847,-0.32526 -0.3270915,-0.32455 H 3.5014723 c -0.036459,0 -0.039321,-0.006 -0.019091,-0.0362 l 0.7623652,-1.14229 c 0.1535063,-0.23025 0.2335477,-0.50024 0.2335459,-0.77699 0.00454,-0.27692 -0.072497,-0.65548 -0.1107275,-0.98127 0.00131,-0.9112 0.2390803,-1.46338 0.6204557,-1.87347 0.3824041,-0.41119 0.9386521,-0.68585 1.5851847,-0.93545 0.1684077,-0.0654 0.2514738,-0.25578 0.1851821,-0.42382 -0.04903,-0.12533 -0.167408,-0.20299 -0.2940004,-0.20682 z m 3.6151891,3.21109 h 1.178548 l -0.166092,0.94183 c -0.136152,0.0228 -0.276674,0.0344 -0.420637,0.0344 -0.145765,0 -0.287991,-0.0123 -0.425728,-0.035 z" />
  </g>
</svg>
